<?xml version="1.0" encoding="UTF-8"?>
<svg id="Layer_1" data-name="Layer 1" xmlns="http://www.w3.org/2000/svg" viewBox="0 0 981.16 180.69">
  <defs>
    <style>
      .cls-1 {
        fill: #f66a00;
      }

      .cls-2 {
        fill: #0a1526;
      }
    </style>
  </defs>
  <g>
    <path class="cls-1" d="m808.32,36.78h-14.25c-.79,0-1.44.64-1.44,1.43v16.5c0,.79.65,1.43,1.44,1.43h14.25c.79,0,1.43-.64,1.43-1.43v-16.5c0-.79-.65-1.43-1.43-1.43Z"/>
    <path class="cls-1" d="m794.07,62.65h14.25c.79,0,1.44.64,1.44,1.44v79.93c0,.79-.64,1.44-1.44,1.44h-14.24c-.79,0-1.43-.64-1.43-1.43v-79.94c0-.79.64-1.43,1.43-1.43Z"/>
    <path class="cls-1" d="m863.54,61.35c-4.85,0-9.21.89-13,2.64-2.79,1.29-5.43,3.15-7.88,5.53v-5.43c0-.79-.65-1.43-1.44-1.43h-13.81c-.79,0-1.43.64-1.43,1.43v79.93c0,.79.64,1.44,1.43,1.44h14.39c.79,0,1.43-.65,1.43-1.44v-36.33c0-10.75,1.55-18.51,4.6-23.07,2.96-4.44,7.67-6.59,14.39-6.59,6.09,0,10.62,1.88,13.47,5.58,2.94,3.82,4.43,9.86,4.43,17.98v42.43c0,.79.65,1.44,1.43,1.44h14.46c.79,0,1.44-.65,1.44-1.44v-45.56c0-11.8-2.94-21.02-8.76-27.41-5.85-6.43-14.31-9.7-25.15-9.7Z"/>
    <path class="cls-1" d="m980.83,143.1l-34-41.11,28.65-37.02c.34-.43.39-1.02.15-1.51-.24-.49-.74-.8-1.29-.8h-16.79c-.45,0-.86.2-1.14.56l-25.92,33.72v-58.71c0-.79-.64-1.43-1.43-1.43h-14.24c-.79,0-1.44.64-1.44,1.43v105.8c0,.79.64,1.44,1.44,1.44h14.24c.79,0,1.43-.65,1.43-1.44v-36.5l29.63,37.39c.27.34.69.54,1.12.54h18.46c.55,0,1.06-.33,1.3-.83.24-.5.16-1.1-.19-1.53Z"/>
  </g>
  <g>
    <path class="cls-2" d="m379.88,61.35c-6.09,0-11.36,1.21-15.63,3.6-3.63,2.03-6.69,4.97-9.12,8.77-2.39-3.87-5.34-6.84-8.79-8.83-4.06-2.34-9.18-3.53-15.2-3.53-4.51,0-8.6.95-12.14,2.82-2.48,1.31-4.8,3.1-6.92,5.35v-5.42c0-.79-.64-1.43-1.44-1.43h-12.79c-.8,0-1.44.64-1.44,1.43v79.93c0,.79.65,1.44,1.44,1.44h13.66c.79,0,1.43-.65,1.43-1.44v-40.91c0-8.97,1.41-15.64,4.18-19.81,2.68-4.04,6.76-6.01,12.48-6.01s9.39,1.94,11.88,5.94c2.59,4.16,3.91,11.04,3.91,20.46v40.33c0,.79.64,1.44,1.43,1.44h13.95c.79,0,1.43-.65,1.43-1.44v-41.78c0-9.2,1.29-15.78,3.84-19.54,2.47-3.64,6.47-5.4,12.24-5.4,4.94,0,8.66,1.68,11.39,5.12,2.77,3.5,4.18,8.56,4.18,15.02v46.58c0,.79.65,1.44,1.43,1.44h14.46c.79,0,1.43-.65,1.43-1.44v-48.83c0-10.16-2.87-18.42-8.54-24.55-5.7-6.16-13.36-9.29-22.77-9.29Z"/>
    <path class="cls-2" d="m501.21,79.52c-4.05-6.05-9.24-10.82-15.45-14.19-6.22-3.37-13.04-5.08-20.27-5.08-6.08,0-11.78,1.16-16.93,3.43-5.15,2.28-9.84,5.71-13.92,10.19-3.83,4.13-6.77,8.78-8.74,13.82-1.97,5.04-2.97,10.52-2.97,16.29s1.1,11.13,3.27,16.49c2.16,5.35,5.2,10.11,9.05,14.15,4.09,4.29,8.72,7.56,13.77,9.71,5.05,2.14,10.69,3.24,16.77,3.24,9.03,0,17.07-2.46,23.9-7.31,6.8-4.83,12.17-11.89,15.94-20.97.19-.44.13-.95-.13-1.34-.27-.4-.71-.64-1.19-.64h-16.2c-.51,0-.99.28-1.25.73-2.19,3.92-5.15,6.99-8.81,9.13-3.66,2.13-7.78,3.21-12.25,3.21-6.25,0-11.72-1.97-16.25-5.86-4.13-3.55-6.89-8.16-8.22-13.72h65.52c.79,0,1.43-.64,1.43-1.43v-2.25c0-5.66-.57-10.77-1.71-15.22-1.15-4.46-2.94-8.62-5.34-12.37Zm-12.07,15.47h-47.23c1.74-5.22,4.61-9.46,8.52-12.59,4.34-3.48,9.55-5.25,15.49-5.25s10.81,1.71,14.93,5.09c3.74,3.07,6.53,7.35,8.28,12.75Z"/>
    <path class="cls-2" d="m557.4,61.35c-4.84,0-9.21.89-12.99,2.64-2.79,1.3-5.44,3.16-7.88,5.53v-5.43c0-.79-.64-1.43-1.44-1.43h-13.8c-.79,0-1.43.64-1.43,1.43v79.93c0,.79.65,1.44,1.43,1.44h14.39c.79,0,1.43-.65,1.43-1.44v-36.33c0-10.75,1.54-18.51,4.59-23.07,2.96-4.44,7.67-6.59,14.39-6.59,6.09,0,10.62,1.88,13.47,5.58,2.93,3.82,4.43,9.86,4.43,17.98v42.43c0,.79.65,1.44,1.44,1.44h14.46c.79,0,1.44-.65,1.44-1.44v-45.56c0-11.8-2.95-21.02-8.77-27.41-5.85-6.43-14.31-9.7-25.15-9.7Z"/>
    <path class="cls-2" d="m639.22,62.65h-9.9v-24.43c0-.79-.65-1.43-1.44-1.43h-14.31c-.8,0-1.44.64-1.44,1.43v24.43h-9.9c-.79,0-1.44.64-1.44,1.43v13.08c0,.79.65,1.43,1.44,1.43h9.9v65.42c0,.79.64,1.44,1.44,1.44h14.31c.79,0,1.44-.65,1.44-1.44v-65.42h9.9c.79,0,1.44-.64,1.44-1.43v-13.08c0-.79-.65-1.43-1.44-1.43Z"/>
    <path class="cls-2" d="m718.21,72.9c-4.14-4.19-8.84-7.4-13.95-9.55-5.12-2.15-10.75-3.23-16.72-3.23-5.61,0-11.09,1.21-16.29,3.62-5.19,2.39-9.91,5.85-14.04,10.28-3.84,4.03-6.79,8.64-8.75,13.72-1.97,5.06-2.96,10.58-2.96,16.4s1.09,11.13,3.26,16.49c2.17,5.36,5.21,10.12,9.05,14.15,4.04,4.24,8.68,7.49,13.78,9.66,5.1,2.18,10.74,3.28,16.76,3.28s11.53-1.21,16.76-3.58c5.22-2.37,9.98-5.89,14.16-10.47,3.65-3.99,6.52-8.72,8.53-14.05,2.01-5.31,3.04-10.87,3.04-16.49s-1.1-10.99-3.27-16.18c-2.18-5.19-5.32-9.91-9.34-14.04Zm-5.15,30.94c0,7.63-2.4,14.06-7.13,19.11-4.7,5.02-10.63,7.57-17.59,7.57s-13.13-2.54-17.89-7.54c-4.78-5.03-7.2-11.42-7.2-19s2.43-14.06,7.21-19.1c4.75-5.03,10.72-7.58,17.74-7.58s13.03,2.51,17.74,7.47c4.73,4.98,7.13,11.4,7.13,19.07Z"/>
    <path class="cls-2" d="m776.26,61.35h-.01c-4.3.05-8.14,1-11.4,2.83-2.17,1.21-4.2,2.87-6.04,4.94v-5.03c0-.79-.65-1.43-1.44-1.43h-13.52c-.79,0-1.44.64-1.44,1.43v79.93c0,.79.65,1.44,1.44,1.44h14.39c.79,0,1.43-.65,1.43-1.44v-44.47c0-6.98,1.29-12.06,3.84-15.1,2.52-3,6.85-4.74,12.86-5.19.74-.05,1.33-.68,1.33-1.43v-15.04c0-.38-.15-.75-.42-1.02-.27-.27-.64-.41-1.01-.41Z"/>
  </g>
  <path class="cls-2" d="m270.95,90.37c-2.88-15.27-11.18-28.98-23.37-38.61-11.36-8.98-25.55-13.92-39.96-13.92-.81,0-1.63.02-2.44.05-3.19.12-6.41.49-9.57,1.08-3.69.7-7.32,1.71-10.78,3.01l-3.41,1.29-1.34.5c-.16.06-.32.09-.48.09-.21,0-.41-.05-.59-.14-.34-.16-.59-.45-.71-.81l-.44-1.36-1.13-3.47c-3.37-10.38-9.67-19.45-18.23-26.2-9.7-7.66-21.81-11.88-34.11-11.88-.7,0-1.39.02-2.09.04-2.73.11-5.48.42-8.16.92-26.19,4.95-45.05,27.87-44.84,54.51l.05,5.35.02,2.1c0,.46-.23.9-.61,1.15-.23.15-.49.23-.76.23-.18,0-.37-.04-.54-.11l-1.93-.83-4.91-2.13c-5.4-2.35-11.36-3.58-17.25-3.58-.54,0-1.08.01-1.62.03-2.16.08-4.33.33-6.43.73-11.38,2.15-21.25,8.6-27.78,18.18C1.03,86.14-1.38,97.68.76,109.06c1.95,10.28,7.53,19.5,15.72,25.97,7.64,6.04,17.18,9.36,26.87,9.36.55,0,1.1,0,1.65-.03,2.16-.08,4.32-.33,6.42-.73.03,0,.08-.01.1-.02h.01s.2-.04.2-.04l2.92-.46,1.14-.18c.07-.01.14-.02.22-.02.58,0,1.1.37,1.29.93l.37,1.09.94,2.79c3.01,8.9,8.49,16.68,15.86,22.51,8.53,6.74,19.2,10.45,30.04,10.45.61,0,1.23-.01,1.84-.04,2.41-.09,4.83-.36,7.19-.81,12.73-2.41,23.75-9.62,31.05-20.32,2.33-3.43,4.22-7.1,5.6-10.91l1.93-5.33.76-2.09c.16-.45.54-.78,1.01-.87.09-.02.18-.03.28-.03.37,0,.73.15,1,.43l1.52,1.62,3.88,4.13c2.19,2.33,4.56,4.5,7.02,6.45,11.36,8.98,25.56,13.93,39.96,13.93.81,0,1.63-.02,2.45-.05,3.17-.12,6.39-.49,9.57-1.09,34.94-6.6,58-40.4,51.4-75.33Zm-54.57,58.59c-2.34.44-4.71.71-7.03.8-23.26.89-44.07-15.71-48.39-38.62-1.44-7.62-.98-15.56,1.34-22.96.11-.34-.03-.71-.33-.9l-9.32-5.9c-.13-.08-.28-.12-.44-.12-.21.01-.4.09-.54.24-5.47,5.67-12.47,9.44-20.25,10.91-1.84.35-3.72.56-5.59.63-.57.02-1.13.03-1.77.03-.34.01-.65.26-.74.6l-2.81,10.8c-.09.35.05.69.35.87,7.61,4.62,12.92,12.28,14.57,21.02,3.22,17.04-8.03,33.52-25.07,36.75-1.55.28-3.12.46-4.67.52-15.41.59-29.2-10.42-32.07-25.6-.81-4.32-.72-8.66.28-12.92.09-.37-.08-.73-.42-.9l-10.29-5c-.13-.07-.27-.1-.4-.09-.21,0-.4.09-.54.24-3.75,3.87-8.72,6.55-14,7.54-1.3.24-2.61.39-3.9.44-12.91.5-24.46-8.72-26.86-21.44-1.31-6.9.16-13.91,4.13-19.72,3.96-5.81,9.96-9.73,16.86-11.03,1.3-.25,2.61-.39,3.91-.45,12.91-.5,24.45,8.72,26.85,21.44.46,2.47.56,5.01.3,7.55-.03.33.15.65.44.8l11.48,5.59c.12.06.26.08.38.08.2,0,.39-.09.54-.25,4.46-4.46,10.1-7.43,16.3-8.6,1.42-.27,2.91-.43,4.42-.49.33-.01.65-.02,1.01-.03.36-.01.65-.25.74-.59l2.69-10.35c.1-.37-.07-.73-.41-.91-10.44-5.31-17.97-15.33-20.14-26.82-3.89-20.6,9.71-40.52,30.3-44.4,1.85-.35,3.75-.57,5.64-.64,18.63-.72,35.3,12.58,38.76,30.93,1.17,6.16.79,12.57-1.11,18.52-.11.35.03.72.33.91l8.59,5.44c.12.08.28.12.44.11.23-.01.44-.11.59-.29,7.07-8.85,17.09-14.87,28.22-16.97,2.33-.44,4.7-.71,7.04-.8,23.26-.89,44.07,15.71,48.39,38.62,4.85,25.71-12.12,50.58-37.83,55.43Z"/>
  <g>
    <path class="cls-1" d="m219.03,107.78c-.69-.37-1.46-.75-2.25-1.16,6.68-2.95,11.35-9.62,11.35-17.38,0-10.5-8.51-19-19-19s-19,8.51-19,19c0,5.83,2.64,11.05,6.78,14.54-.84.16-1.65.33-2.39.56-9.66,2.42-17.8,9.14-21.98,18.29,5.86,10.13,15.95,17.49,27.86,19.66l3.44.48c1.28.12,2.58.19,3.89.19,10.61,0,20.27-4.07,27.5-10.73-1.29-10.28-7.36-19.33-16.21-24.45Z"/>
    <path class="cls-1" d="m133.27,58.94c-.56-.2-1.04-.41-1.5-.65,4.58-2.54,7.68-7.41,7.68-13.01,0-8.21-6.65-14.87-14.86-14.87s-14.87,6.66-14.87,14.87c0,4.93,2.42,9.3,6.12,12-.49.16-.99.33-1.53.48-7.24,2.42-13.07,8.04-15.72,15.28,5.33,7.78,14.06,12.93,23.87,13.5l1.22.08c1.01.02,2.02,0,3.04-.08,8.13-.63,15.26-4.35,20.4-9.89-1.6-7.78-6.78-14.32-13.86-17.71Z"/>
    <path class="cls-1" d="m49.3,102.62c-.3-.08-.61-.18-.91-.28,2.22-1.76,3.67-4.44,3.67-7.49,0-5.3-4.3-9.59-9.6-9.59s-9.59,4.3-9.59,9.59c0,3.72,2.13,6.91,5.22,8.5-.36.11-.71.23-.97.37-4.37,2.25-7.54,6.4-8.52,11.26,4.15,4.43,10.2,6.86,16.5,6.27l.8-.07c.64-.09,1.29-.2,1.93-.35,5.11-1.19,9.28-4.24,12.02-8.25-1.77-4.8-5.69-8.49-10.53-9.96Z"/>
    <path class="cls-1" d="m112.09,134.2c-.56-.16-1.07-.29-1.57-.4,3.03-2.12,5.03-5.63,5.03-9.61,0-6.48-5.25-11.72-11.73-11.72s-11.72,5.24-11.72,11.72c0,4.47,2.51,8.37,6.2,10.34-.56.17-1.08.35-1.52.58-5.56,2.65-9.69,7.72-11.12,13.77,5.03,5.71,12.52,9,20.45,8.5l.98-.06c.81-.08,1.62-.2,2.43-.36,6.45-1.3,11.81-4.97,15.39-9.9-2.04-6.07-6.83-10.82-12.82-12.85Z"/>
  </g>
</svg>